<mxfile host="65bd71144e">
    <diagram id="dSwgQUAYqZofgUCX_ETS" name="Page-1">
        <mxGraphModel dx="1301" dy="768" grid="1" gridSize="10" guides="1" tooltips="1" connect="1" arrows="1" fold="1" page="1" pageScale="1" pageWidth="827" pageHeight="1169" math="0" shadow="0">
            <root>
                <mxCell id="0"/>
                <mxCell id="1" parent="0"/>
                <mxCell id="7" value="" style="edgeStyle=none;html=1;" parent="1" source="2" edge="1">
                    <mxGeometry relative="1" as="geometry">
                        <mxPoint x="414" y="110" as="targetPoint"/>
                        <Array as="points">
                            <mxPoint x="414" y="90"/>
                        </Array>
                    </mxGeometry>
                </mxCell>
                <mxCell id="2" value="Start spillet" style="rounded=1;whiteSpace=wrap;html=1;" parent="1" vertex="1">
                    <mxGeometry x="354" y="20" width="120" height="40" as="geometry"/>
                </mxCell>
                <mxCell id="8" value="Spiller vælger sten, saks eller papir" style="rounded=1;whiteSpace=wrap;html=1;" parent="1" vertex="1">
                    <mxGeometry x="354" y="110" width="120" height="60" as="geometry"/>
                </mxCell>
                <mxCell id="11" value="" style="endArrow=classic;html=1;exitX=0.5;exitY=1;exitDx=0;exitDy=0;" parent="1" source="8" edge="1">
                    <mxGeometry width="50" height="50" relative="1" as="geometry">
                        <mxPoint x="390" y="390" as="sourcePoint"/>
                        <mxPoint x="414" y="240" as="targetPoint"/>
                    </mxGeometry>
                </mxCell>
                <mxCell id="12" value="javaScript genererer et&amp;nbsp; random move&amp;nbsp;" style="rounded=1;whiteSpace=wrap;html=1;" parent="1" vertex="1">
                    <mxGeometry x="354" y="240" width="120" height="60" as="geometry"/>
                </mxCell>
                <mxCell id="13" value="" style="endArrow=classic;html=1;exitX=0.5;exitY=1;exitDx=0;exitDy=0;entryX=0.5;entryY=0;entryDx=0;entryDy=0;" parent="1" source="12" target="15" edge="1">
                    <mxGeometry width="50" height="50" relative="1" as="geometry">
                        <mxPoint x="390" y="390" as="sourcePoint"/>
                        <mxPoint x="300" y="390" as="targetPoint"/>
                    </mxGeometry>
                </mxCell>
                <mxCell id="14" value="" style="endArrow=classic;html=1;entryX=0.558;entryY=-0.067;entryDx=0;entryDy=0;entryPerimeter=0;" parent="1" target="16" edge="1">
                    <mxGeometry width="50" height="50" relative="1" as="geometry">
                        <mxPoint x="410" y="300" as="sourcePoint"/>
                        <mxPoint x="520" y="380" as="targetPoint"/>
                    </mxGeometry>
                </mxCell>
                <mxCell id="15" value="Spiller har valgt et træk, stærkere end computerens" style="rounded=1;whiteSpace=wrap;html=1;" parent="1" vertex="1">
                    <mxGeometry x="140" y="390" width="120" height="60" as="geometry"/>
                </mxCell>
                <mxCell id="16" value="Computeren har et træk, stærkere end spillerens" style="rounded=1;whiteSpace=wrap;html=1;" parent="1" vertex="1">
                    <mxGeometry x="550" y="390" width="120" height="60" as="geometry"/>
                </mxCell>
                <mxCell id="19" value="" style="endArrow=classic;html=1;" parent="1" edge="1">
                    <mxGeometry width="50" height="50" relative="1" as="geometry">
                        <mxPoint x="410" y="300" as="sourcePoint"/>
                        <mxPoint x="410" y="390" as="targetPoint"/>
                    </mxGeometry>
                </mxCell>
                <mxCell id="20" value="Spiller og computer har det samme træk" style="rounded=1;whiteSpace=wrap;html=1;" parent="1" vertex="1">
                    <mxGeometry x="350" y="390" width="120" height="60" as="geometry"/>
                </mxCell>
                <mxCell id="21" value="" style="endArrow=classic;html=1;exitX=0.5;exitY=1;exitDx=0;exitDy=0;" parent="1" source="15" edge="1">
                    <mxGeometry width="50" height="50" relative="1" as="geometry">
                        <mxPoint x="200" y="460" as="sourcePoint"/>
                        <mxPoint x="200" y="520" as="targetPoint"/>
                    </mxGeometry>
                </mxCell>
                <mxCell id="22" value="Skærm: Du vinder!" style="rounded=1;whiteSpace=wrap;html=1;" parent="1" vertex="1">
                    <mxGeometry x="140" y="525" width="120" height="60" as="geometry"/>
                </mxCell>
                <mxCell id="23" value="Skærm: Du taber!" style="rounded=1;whiteSpace=wrap;html=1;" parent="1" vertex="1">
                    <mxGeometry x="550" y="520" width="120" height="60" as="geometry"/>
                </mxCell>
                <mxCell id="24" value="" style="endArrow=classic;html=1;exitX=0.5;exitY=1;exitDx=0;exitDy=0;entryX=0.5;entryY=0;entryDx=0;entryDy=0;" parent="1" source="16" target="23" edge="1">
                    <mxGeometry width="50" height="50" relative="1" as="geometry">
                        <mxPoint x="210" y="460" as="sourcePoint"/>
                        <mxPoint x="210" y="530" as="targetPoint"/>
                        <Array as="points"/>
                    </mxGeometry>
                </mxCell>
                <mxCell id="25" value="Skærm: Den står lige!" style="rounded=1;whiteSpace=wrap;html=1;" parent="1" vertex="1">
                    <mxGeometry x="350" y="525" width="120" height="60" as="geometry"/>
                </mxCell>
                <mxCell id="26" value="" style="endArrow=classic;html=1;exitX=0.5;exitY=1;exitDx=0;exitDy=0;entryX=0.5;entryY=0;entryDx=0;entryDy=0;" parent="1" source="20" target="25" edge="1">
                    <mxGeometry width="50" height="50" relative="1" as="geometry">
                        <mxPoint x="210" y="460" as="sourcePoint"/>
                        <mxPoint x="210" y="530" as="targetPoint"/>
                    </mxGeometry>
                </mxCell>
                <mxCell id="27" value="Spilet er slut. Prøv igen?" style="rounded=1;whiteSpace=wrap;html=1;" parent="1" vertex="1">
                    <mxGeometry x="354" y="660" width="120" height="60" as="geometry"/>
                </mxCell>
                <mxCell id="28" value="" style="endArrow=classic;html=1;exitX=0.5;exitY=1;exitDx=0;exitDy=0;entryX=0;entryY=0.5;entryDx=0;entryDy=0;" parent="1" source="22" target="27" edge="1">
                    <mxGeometry width="50" height="50" relative="1" as="geometry">
                        <mxPoint x="390" y="350" as="sourcePoint"/>
                        <mxPoint x="440" y="300" as="targetPoint"/>
                    </mxGeometry>
                </mxCell>
                <mxCell id="29" value="" style="endArrow=classic;html=1;" parent="1" target="27" edge="1">
                    <mxGeometry width="50" height="50" relative="1" as="geometry">
                        <mxPoint x="410" y="580" as="sourcePoint"/>
                        <mxPoint x="440" y="300" as="targetPoint"/>
                    </mxGeometry>
                </mxCell>
                <mxCell id="30" value="" style="endArrow=classic;html=1;exitX=0.5;exitY=1;exitDx=0;exitDy=0;entryX=1;entryY=0.5;entryDx=0;entryDy=0;" parent="1" source="23" target="27" edge="1">
                    <mxGeometry width="50" height="50" relative="1" as="geometry">
                        <mxPoint x="610" y="700" as="sourcePoint"/>
                        <mxPoint x="660" y="650" as="targetPoint"/>
                    </mxGeometry>
                </mxCell>
            </root>
        </mxGraphModel>
    </diagram>
</mxfile>